<?xml version="1.0" encoding="UTF-8" standalone="no"?>
<!-- Created with Inkscape (http://www.inkscape.org/) -->

<svg
   xmlns:dc="http://purl.org/dc/elements/1.1/"
   xmlns:cc="http://creativecommons.org/ns#"
   xmlns:rdf="http://www.w3.org/1999/02/22-rdf-syntax-ns#"
   xmlns:svg="http://www.w3.org/2000/svg"
   xmlns="http://www.w3.org/2000/svg"
   xmlns:sodipodi="http://sodipodi.sourceforge.net/DTD/sodipodi-0.dtd"
   xmlns:inkscape="http://www.inkscape.org/namespaces/inkscape"
   width="210mm"
   height="297mm"
   id="svg4094"
   version="1.1"
   inkscape:version="0.48.3.1 r9886"
   sodipodi:docname="Novo documento 6">
  <defs
     id="defs4096" />
  <sodipodi:namedview
     id="base"
     pagecolor="#ffffff"
     bordercolor="#666666"
     borderopacity="1.0"
     inkscape:pageopacity="0.0"
     inkscape:pageshadow="2"
     inkscape:zoom="0.35"
     inkscape:cx="350"
     inkscape:cy="520"
     inkscape:document-units="px"
     inkscape:current-layer="layer1"
     showgrid="false"
     inkscape:window-width="624"
     inkscape:window-height="438"
     inkscape:window-x="65"
     inkscape:window-y="24"
     inkscape:window-maximized="0" />
  <metadata
     id="metadata4099">
    <rdf:RDF>
      <cc:Work
         rdf:about="">
        <dc:format>image/svg+xml</dc:format>
        <dc:type
           rdf:resource="http://purl.org/dc/dcmitype/StillImage" />
        <dc:title></dc:title>
      </cc:Work>
    </rdf:RDF>
  </metadata>
  <g
     inkscape:label="Camada 1"
     inkscape:groupmode="layer"
     id="layer1">
    <path
       style="fill:#000080;stroke:#000000;stroke-width:0.90632695px;stroke-linecap:butt;stroke-linejoin:miter;stroke-opacity:1"
       d="m 192.93107,512.93033 229.99999,0"
       id="path3021-2"
       inkscape:connector-curvature="0" />
    <path
       sodipodi:type="arc"
       style="fill:#000080;fill-opacity:1;stroke:none"
       id="path3031-3-5"
       sodipodi:cx="322.5"
       sodipodi:cy="354.86218"
       sodipodi:rx="2.5"
       sodipodi:ry="2.5"
       d="m 325,354.86218 a 2.5,2.5 0 1 1 -5,0 2.5,2.5 0 1 1 5,0 z"
       transform="matrix(1.4,0,0,1.4499997,-128.85751,-41.244728)" />
    <path
       sodipodi:type="arc"
       style="fill:#000080;fill-opacity:1;stroke:none"
       id="path3031-3-4-5"
       sodipodi:cx="322.5"
       sodipodi:cy="354.86218"
       sodipodi:rx="2.5"
       sodipodi:ry="2.5"
       d="m 325,354.86218 a 2.5,2.5 0 1 1 -5,0 2.5,2.5 0 1 1 5,0 z"
       transform="matrix(1.4,0,0,1.4499997,-148.85751,-21.619728)" />
    <path
       sodipodi:type="arc"
       style="fill:#000080;fill-opacity:1;stroke:none"
       id="path3031-3-1-3"
       sodipodi:cx="322.5"
       sodipodi:cy="354.86218"
       sodipodi:rx="2.5"
       sodipodi:ry="2.5"
       d="m 325,354.86218 a 2.5,2.5 0 1 1 -5,0 2.5,2.5 0 1 1 5,0 z"
       transform="matrix(1.4,0,0,1.4499997,-168.56894,-82.619728)" />
    <path
       sodipodi:type="arc"
       style="fill:#000080;fill-opacity:1;stroke:none"
       id="path3031-3-1-5-4"
       sodipodi:cx="322.5"
       sodipodi:cy="354.86218"
       sodipodi:rx="2.5"
       sodipodi:ry="2.5"
       d="m 325,354.86218 a 2.5,2.5 0 1 1 -5,0 2.5,2.5 0 1 1 5,0 z"
       transform="matrix(1.4,0,0,1.4499997,-109.06894,-1.6197178)" />
    <path
       sodipodi:type="arc"
       style="fill:#000080;fill-opacity:1;stroke:none"
       id="path3031-3-1-5-3-2"
       sodipodi:cx="322.5"
       sodipodi:cy="354.86218"
       sodipodi:rx="2.5"
       sodipodi:ry="2.5"
       d="m 325,354.86218 a 2.5,2.5 0 1 1 -5,0 2.5,2.5 0 1 1 5,0 z"
       transform="matrix(1.4,0,0,1.4499997,-88.068936,-1.6197178)" />
    <path
       sodipodi:type="arc"
       style="fill:#000080;fill-opacity:1;stroke:none"
       id="path3031-3-1-5-7-4"
       sodipodi:cx="322.5"
       sodipodi:cy="354.86218"
       sodipodi:rx="2.5"
       sodipodi:ry="2.5"
       d="m 325,354.86218 a 2.5,2.5 0 1 1 -5,0 2.5,2.5 0 1 1 5,0 z"
       transform="matrix(1.4,0,0,1.4499997,-209.06894,-1.6197178)" />
    <path
       sodipodi:type="arc"
       style="fill:#000080;fill-opacity:1;stroke:none"
       id="path3031-3-1-5-3-0-6"
       sodipodi:cx="322.5"
       sodipodi:cy="354.86218"
       sodipodi:rx="2.5"
       sodipodi:ry="2.5"
       d="m 325,354.86218 a 2.5,2.5 0 1 1 -5,0 2.5,2.5 0 1 1 5,0 z"
       transform="matrix(1.4,0,0,1.4499997,-188.06894,-1.6197178)" />
    <path
       sodipodi:type="arc"
       style="fill:#000080;fill-opacity:1;stroke:none"
       id="path3031-3-1-5-1-1"
       sodipodi:cx="322.5"
       sodipodi:cy="354.86218"
       sodipodi:rx="2.5"
       sodipodi:ry="2.5"
       d="m 325,354.86218 a 2.5,2.5 0 1 1 -5,0 2.5,2.5 0 1 1 5,0 z"
       transform="matrix(1.4,0,0,1.4499997,-68.068936,-1.6197178)" />
    <path
       sodipodi:type="arc"
       style="fill:#000080;fill-opacity:1;stroke:none"
       id="path3031-3-1-5-3-6-1"
       sodipodi:cx="322.5"
       sodipodi:cy="354.86218"
       sodipodi:rx="2.5"
       sodipodi:ry="2.5"
       d="m 325,354.86218 a 2.5,2.5 0 1 1 -5,0 2.5,2.5 0 1 1 5,0 z"
       transform="matrix(1.4,0,0,1.4499997,-47.068936,-1.6197178)" />
    <path
       sodipodi:type="arc"
       style="fill:#000080;fill-opacity:1;stroke:none"
       id="path3031-3-1-5-7-0-7"
       sodipodi:cx="322.5"
       sodipodi:cy="354.86218"
       sodipodi:rx="2.5"
       sodipodi:ry="2.5"
       d="m 325,354.86218 a 2.5,2.5 0 1 1 -5,0 2.5,2.5 0 1 1 5,0 z"
       transform="matrix(1.4,0,0,1.4499997,-250.06894,-1.6197178)" />
    <path
       sodipodi:type="arc"
       style="fill:#000080;fill-opacity:1;stroke:none"
       id="path3031-3-1-5-3-0-1-9"
       sodipodi:cx="322.5"
       sodipodi:cy="354.86218"
       sodipodi:rx="2.5"
       sodipodi:ry="2.5"
       d="m 325,354.86218 a 2.5,2.5 0 1 1 -5,0 2.5,2.5 0 1 1 5,0 z"
       transform="matrix(1.4,0,0,1.4499997,-229.06894,-1.6197178)" />
    <text
       xml:space="preserve"
       style="font-size:20px;font-style:normal;font-variant:normal;font-weight:normal;font-stretch:normal;text-align:start;line-height:125%;letter-spacing:0px;word-spacing:0px;writing-mode:lr-tb;text-anchor:start;fill:#000080;fill-opacity:1;stroke:none;font-family:Arial;-inkscape-font-specification:Arial"
       x="422.93106"
       y="525.43036"
       id="text3973-7"
       sodipodi:linespacing="125%"><tspan
         sodipodi:role="line"
         id="tspan3975-04"
         x="422.93106"
         y="525.43036"
         style="font-size:14px;font-style:normal;font-variant:normal;font-weight:normal;font-stretch:normal;text-align:start;line-height:125%;writing-mode:lr-tb;text-anchor:start;fill:#000080;font-family:Arial;-inkscape-font-specification:Arial">k</tspan></text>
    <text
       xml:space="preserve"
       style="font-size:12px;font-style:normal;font-variant:normal;font-weight:normal;font-stretch:normal;text-align:start;line-height:125%;letter-spacing:0px;word-spacing:0px;writing-mode:lr-tb;text-anchor:start;fill:#000080;fill-opacity:1;stroke:none;font-family:Arial;-inkscape-font-specification:Arial"
       x="383.93106"
       y="451.74283"
       id="text3977-5"
       sodipodi:linespacing="125%"><tspan
         sodipodi:role="line"
         id="tspan3979-5"
         x="383.93106"
         y="451.74283">x[k]</tspan></text>
    <text
       xml:space="preserve"
       style="font-size:20px;font-style:normal;font-variant:normal;font-weight:normal;font-stretch:normal;text-align:start;line-height:125%;letter-spacing:0px;word-spacing:0px;writing-mode:lr-tb;text-anchor:start;fill:#000080;fill-opacity:1;stroke:none;font-family:Arial;-inkscape-font-specification:Arial"
       x="279.0585"
       y="525.43036"
       id="text3973-9-7"
       sodipodi:linespacing="125%"><tspan
         sodipodi:role="line"
         id="tspan3975-5-0"
         x="279.0585"
         y="525.43036"
         style="font-size:14px;font-style:normal;font-variant:normal;font-weight:normal;font-stretch:normal;text-align:start;line-height:125%;writing-mode:lr-tb;text-anchor:start;fill:#000080;font-family:Arial;-inkscape-font-specification:Arial">0</tspan></text>
    <text
       xml:space="preserve"
       style="font-size:20px;font-style:normal;font-variant:normal;font-weight:normal;font-stretch:normal;text-align:start;line-height:125%;letter-spacing:0px;word-spacing:0px;writing-mode:lr-tb;text-anchor:start;fill:#000080;fill-opacity:1;stroke:none;font-family:Arial;-inkscape-font-specification:Arial"
       x="298.76993"
       y="525.43036"
       id="text3973-9-1-4"
       sodipodi:linespacing="125%"><tspan
         sodipodi:role="line"
         id="tspan3975-5-3-7"
         x="298.76993"
         y="525.43036"
         style="font-size:14px;font-style:normal;font-variant:normal;font-weight:normal;font-stretch:normal;text-align:start;line-height:125%;writing-mode:lr-tb;text-anchor:start;fill:#000080;font-family:Arial;-inkscape-font-specification:Arial">1</tspan></text>
    <text
       xml:space="preserve"
       style="font-size:20px;font-style:normal;font-variant:normal;font-weight:normal;font-stretch:normal;text-align:start;line-height:125%;letter-spacing:0px;word-spacing:0px;writing-mode:lr-tb;text-anchor:start;fill:#000080;fill-opacity:1;stroke:none;font-family:Arial;-inkscape-font-specification:Arial"
       x="318.76993"
       y="525.43036"
       id="text3973-9-1-9-5"
       sodipodi:linespacing="125%"><tspan
         sodipodi:role="line"
         id="tspan3975-5-3-5-6"
         x="318.76993"
         y="525.43036"
         style="font-size:14px;font-style:normal;font-variant:normal;font-weight:normal;font-stretch:normal;text-align:start;line-height:125%;writing-mode:lr-tb;text-anchor:start;fill:#000080;font-family:Arial;-inkscape-font-specification:Arial">2</tspan></text>
    <path
       style="fill:#000080;stroke:#000000;stroke-width:1px;stroke-linecap:butt;stroke-linejoin:miter;stroke-opacity:1"
       d="m 282.93107,512.93033 0,-80"
       id="path4195-8"
       inkscape:connector-curvature="0" />
    <path
       style="fill:#000080;stroke:#000000;stroke-width:1px;stroke-linecap:butt;stroke-linejoin:miter;stroke-opacity:1"
       d="m 302.93106,512.93033 0,-20"
       id="path4197-6"
       inkscape:connector-curvature="0" />
    <path
       style="fill:#000080;stroke:#000000;stroke-width:1px;stroke-linecap:butt;stroke-linejoin:miter;stroke-opacity:1"
       d="m 322.93106,512.93033 0,-40 0,0"
       id="path4199-3"
       inkscape:connector-curvature="0" />
    <text
       xml:space="preserve"
       style="font-size:20px;font-style:normal;font-variant:normal;font-weight:normal;font-stretch:normal;text-align:start;line-height:125%;letter-spacing:0px;word-spacing:0px;writing-mode:lr-tb;text-anchor:start;fill:#000080;fill-opacity:1;stroke:none;font-family:Arial;-inkscape-font-specification:Arial"
       x="278.93106"
       y="423.43033"
       id="text3973-5-8"
       sodipodi:linespacing="125%"><tspan
         sodipodi:role="line"
         id="tspan3975-0-2"
         x="278.93106"
         y="423.43033"
         style="font-size:14px;font-style:normal;font-variant:normal;font-weight:normal;font-stretch:normal;text-align:start;line-height:125%;writing-mode:lr-tb;text-anchor:start;fill:#000080;font-family:Arial;-inkscape-font-specification:Arial">4</tspan></text>
    <text
       xml:space="preserve"
       style="font-size:20px;font-style:normal;font-variant:normal;font-weight:normal;font-stretch:normal;text-align:start;line-height:125%;letter-spacing:0px;word-spacing:0px;writing-mode:lr-tb;text-anchor:start;fill:#000080;fill-opacity:1;stroke:none;font-family:Arial;-inkscape-font-specification:Arial"
       x="298.93106"
       y="486.43033"
       id="text3973-5-9-97"
       sodipodi:linespacing="125%"><tspan
         sodipodi:role="line"
         id="tspan3975-0-8-0"
         x="298.93106"
         y="486.43033"
         style="font-size:14px;font-style:normal;font-variant:normal;font-weight:normal;font-stretch:normal;text-align:start;line-height:125%;writing-mode:lr-tb;text-anchor:start;fill:#000080;font-family:Arial;-inkscape-font-specification:Arial">1</tspan></text>
    <text
       xml:space="preserve"
       style="font-size:20px;font-style:normal;font-variant:normal;font-weight:normal;font-stretch:normal;text-align:start;line-height:125%;letter-spacing:0px;word-spacing:0px;writing-mode:lr-tb;text-anchor:start;fill:#000080;fill-opacity:1;stroke:none;font-family:Arial;-inkscape-font-specification:Arial"
       x="318.93106"
       y="464.43033"
       id="text3973-5-9-9-1"
       sodipodi:linespacing="125%"><tspan
         sodipodi:role="line"
         id="tspan3975-0-8-7-7"
         x="318.93106"
         y="464.43033"
         style="font-size:14px;font-style:normal;font-variant:normal;font-weight:normal;font-stretch:normal;text-align:start;line-height:125%;writing-mode:lr-tb;text-anchor:start;fill:#000080;font-family:Arial;-inkscape-font-specification:Arial">2</tspan></text>
    <g
       transform="translate(111.93107,-71.431848)"
       id="g4914">
      <path
         inkscape:connector-curvature="0"
         id="path3021-3-9"
         d="m 355.78857,583.98718 230,0"
         style="fill:#ff0000;stroke:#000000;stroke-width:0.90632695px;stroke-linecap:butt;stroke-linejoin:miter;stroke-opacity:1" />
      <path
         inkscape:connector-curvature="0"
         id="path3027-6-6"
         d="m 465.5,583.98718 0,-40"
         style="fill:#ff0000;stroke:#000000;stroke-width:1px;stroke-linecap:butt;stroke-linejoin:miter;stroke-opacity:1" />
      <path
         transform="matrix(1.4,0,0,1.4499997,34,9.81212)"
         d="m 325,354.86218 c 0,1.38071 -1.11929,2.5 -2.5,2.5 -1.38071,0 -2.5,-1.11929 -2.5,-2.5 0,-1.38071 1.11929,-2.5 2.5,-2.5 1.38071,0 2.5,1.11929 2.5,2.5 z"
         sodipodi:ry="2.5"
         sodipodi:rx="2.5"
         sodipodi:cy="354.86218"
         sodipodi:cx="322.5"
         id="path3031-3-6-9"
         style="fill:#ff0000;fill-opacity:1;stroke:none"
         sodipodi:type="arc" />
      <path
         transform="matrix(1.4,0,0,1.4499997,14,29.43712)"
         d="m 325,354.86218 c 0,1.38071 -1.11929,2.5 -2.5,2.5 -1.38071,0 -2.5,-1.11929 -2.5,-2.5 0,-1.38071 1.11929,-2.5 2.5,-2.5 1.38071,0 2.5,1.11929 2.5,2.5 z"
         sodipodi:ry="2.5"
         sodipodi:rx="2.5"
         sodipodi:cy="354.86218"
         sodipodi:cx="322.5"
         id="path3031-3-4-8-0"
         style="fill:#ff0000;fill-opacity:1;stroke:none"
         sodipodi:type="arc" />
      <path
         transform="matrix(1.4,0,0,1.4499997,-5.71143,48.437123)"
         d="m 325,354.86218 c 0,1.38071 -1.11929,2.5 -2.5,2.5 -1.38071,0 -2.5,-1.11929 -2.5,-2.5 0,-1.38071 1.11929,-2.5 2.5,-2.5 1.38071,0 2.5,1.11929 2.5,2.5 z"
         sodipodi:ry="2.5"
         sodipodi:rx="2.5"
         sodipodi:cy="354.86218"
         sodipodi:cx="322.5"
         id="path3031-3-1-1-8"
         style="fill:#ff0000;fill-opacity:1;stroke:none"
         sodipodi:type="arc" />
      <path
         transform="matrix(1.4,0,0,1.4499997,53.78857,69.437143)"
         d="m 325,354.86218 c 0,1.38071 -1.11929,2.5 -2.5,2.5 -1.38071,0 -2.5,-1.11929 -2.5,-2.5 0,-1.38071 1.11929,-2.5 2.5,-2.5 1.38071,0 2.5,1.11929 2.5,2.5 z"
         sodipodi:ry="2.5"
         sodipodi:rx="2.5"
         sodipodi:cy="354.86218"
         sodipodi:cx="322.5"
         id="path3031-3-1-5-2-2"
         style="fill:#ff0000;fill-opacity:1;stroke:none"
         sodipodi:type="arc" />
      <path
         transform="matrix(1.4,0,0,1.4499997,74.788571,69.437143)"
         d="m 325,354.86218 c 0,1.38071 -1.11929,2.5 -2.5,2.5 -1.38071,0 -2.5,-1.11929 -2.5,-2.5 0,-1.38071 1.11929,-2.5 2.5,-2.5 1.38071,0 2.5,1.11929 2.5,2.5 z"
         sodipodi:ry="2.5"
         sodipodi:rx="2.5"
         sodipodi:cy="354.86218"
         sodipodi:cx="322.5"
         id="path3031-3-1-5-3-8-4"
         style="fill:#ff0000;fill-opacity:1;stroke:none"
         sodipodi:type="arc" />
      <path
         transform="matrix(1.4,0,0,1.4499997,-46.211433,69.437143)"
         d="m 325,354.86218 c 0,1.38071 -1.11929,2.5 -2.5,2.5 -1.38071,0 -2.5,-1.11929 -2.5,-2.5 0,-1.38071 1.11929,-2.5 2.5,-2.5 1.38071,0 2.5,1.11929 2.5,2.5 z"
         sodipodi:ry="2.5"
         sodipodi:rx="2.5"
         sodipodi:cy="354.86218"
         sodipodi:cx="322.5"
         id="path3031-3-1-5-7-2-3"
         style="fill:#ff0000;fill-opacity:1;stroke:none"
         sodipodi:type="arc" />
      <path
         transform="matrix(1.4,0,0,1.4499997,-25.211433,69.437143)"
         d="m 325,354.86218 c 0,1.38071 -1.11929,2.5 -2.5,2.5 -1.38071,0 -2.5,-1.11929 -2.5,-2.5 0,-1.38071 1.11929,-2.5 2.5,-2.5 1.38071,0 2.5,1.11929 2.5,2.5 z"
         sodipodi:ry="2.5"
         sodipodi:rx="2.5"
         sodipodi:cy="354.86218"
         sodipodi:cx="322.5"
         id="path3031-3-1-5-3-0-2-7"
         style="fill:#ff0000;fill-opacity:1;stroke:none"
         sodipodi:type="arc" />
      <path
         transform="matrix(1.4,0,0,1.4499997,94.78857,69.437143)"
         d="m 325,354.86218 c 0,1.38071 -1.11929,2.5 -2.5,2.5 -1.38071,0 -2.5,-1.11929 -2.5,-2.5 0,-1.38071 1.11929,-2.5 2.5,-2.5 1.38071,0 2.5,1.11929 2.5,2.5 z"
         sodipodi:ry="2.5"
         sodipodi:rx="2.5"
         sodipodi:cy="354.86218"
         sodipodi:cx="322.5"
         id="path3031-3-1-5-1-7-2"
         style="fill:#ff0000;fill-opacity:1;stroke:none"
         sodipodi:type="arc" />
      <path
         transform="matrix(1.4,0,0,1.4499997,115.78857,69.437143)"
         d="m 325,354.86218 c 0,1.38071 -1.11929,2.5 -2.5,2.5 -1.38071,0 -2.5,-1.11929 -2.5,-2.5 0,-1.38071 1.11929,-2.5 2.5,-2.5 1.38071,0 2.5,1.11929 2.5,2.5 z"
         sodipodi:ry="2.5"
         sodipodi:rx="2.5"
         sodipodi:cy="354.86218"
         sodipodi:cx="322.5"
         id="path3031-3-1-5-3-6-4-0"
         style="fill:#ff0000;fill-opacity:1;stroke:none"
         sodipodi:type="arc" />
      <path
         transform="matrix(1.4,0,0,1.4499997,-87.211433,69.437143)"
         d="m 325,354.86218 c 0,1.38071 -1.11929,2.5 -2.5,2.5 -1.38071,0 -2.5,-1.11929 -2.5,-2.5 0,-1.38071 1.11929,-2.5 2.5,-2.5 1.38071,0 2.5,1.11929 2.5,2.5 z"
         sodipodi:ry="2.5"
         sodipodi:rx="2.5"
         sodipodi:cy="354.86218"
         sodipodi:cx="322.5"
         id="path3031-3-1-5-7-0-1-0"
         style="fill:#ff0000;fill-opacity:1;stroke:none"
         sodipodi:type="arc" />
      <path
         transform="matrix(1.4,0,0,1.4499997,-66.211433,69.437143)"
         d="m 325,354.86218 c 0,1.38071 -1.11929,2.5 -2.5,2.5 -1.38071,0 -2.5,-1.11929 -2.5,-2.5 0,-1.38071 1.11929,-2.5 2.5,-2.5 1.38071,0 2.5,1.11929 2.5,2.5 z"
         sodipodi:ry="2.5"
         sodipodi:rx="2.5"
         sodipodi:cy="354.86218"
         sodipodi:cx="322.5"
         id="path3031-3-1-5-3-0-1-2-8"
         style="fill:#ff0000;fill-opacity:1;stroke:none"
         sodipodi:type="arc" />
      <text
         sodipodi:linespacing="125%"
         id="text3973-2-2"
         y="596.48718"
         x="585.78857"
         style="font-size:20px;font-style:normal;font-variant:normal;font-weight:normal;font-stretch:normal;text-align:start;line-height:125%;letter-spacing:0px;word-spacing:0px;writing-mode:lr-tb;text-anchor:start;fill:#ff0000;fill-opacity:1;stroke:none;font-family:Arial;-inkscape-font-specification:Arial"
         xml:space="preserve"><tspan
           style="font-size:14px;font-style:normal;font-variant:normal;font-weight:normal;font-stretch:normal;text-align:start;line-height:125%;writing-mode:lr-tb;text-anchor:start;fill:#ff0000;font-family:Arial;-inkscape-font-specification:Arial"
           y="596.48718"
           x="585.78857"
           id="tspan3975-4-6"
           sodipodi:role="line">k</tspan></text>
      <text
         sodipodi:linespacing="125%"
         id="text3977-0-4"
         y="523.17468"
         x="542.78857"
         style="font-size:12px;font-style:normal;font-variant:normal;font-weight:normal;font-stretch:normal;text-align:start;line-height:125%;letter-spacing:0px;word-spacing:0px;writing-mode:lr-tb;text-anchor:start;fill:#ff0000;fill-opacity:1;stroke:none;font-family:Arial;-inkscape-font-specification:Arial"
         xml:space="preserve"><tspan
           y="523.17468"
           x="542.78857"
           id="tspan3979-0-6"
           sodipodi:role="line">h[k]</tspan></text>
      <text
         sodipodi:linespacing="125%"
         id="text3973-9-13-0"
         y="596.48718"
         x="441.91602"
         style="font-size:20px;font-style:normal;font-variant:normal;font-weight:normal;font-stretch:normal;text-align:start;line-height:125%;letter-spacing:0px;word-spacing:0px;writing-mode:lr-tb;text-anchor:start;fill:#ff0000;fill-opacity:1;stroke:none;font-family:Arial;-inkscape-font-specification:Arial"
         xml:space="preserve"><tspan
           style="font-size:14px;font-style:normal;font-variant:normal;font-weight:normal;font-stretch:normal;text-align:start;line-height:125%;writing-mode:lr-tb;text-anchor:start;fill:#ff0000;font-family:Arial;-inkscape-font-specification:Arial"
           y="596.48718"
           x="441.91602"
           id="tspan3975-5-2-4"
           sodipodi:role="line">0</tspan></text>
      <text
         sodipodi:linespacing="125%"
         id="text3973-9-1-0-5"
         y="596.48718"
         x="461.62744"
         style="font-size:20px;font-style:normal;font-variant:normal;font-weight:normal;font-stretch:normal;text-align:start;line-height:125%;letter-spacing:0px;word-spacing:0px;writing-mode:lr-tb;text-anchor:start;fill:#ff0000;fill-opacity:1;stroke:none;font-family:Arial;-inkscape-font-specification:Arial"
         xml:space="preserve"><tspan
           style="font-size:14px;font-style:normal;font-variant:normal;font-weight:normal;font-stretch:normal;text-align:start;line-height:125%;writing-mode:lr-tb;text-anchor:start;fill:#ff0000;font-family:Arial;-inkscape-font-specification:Arial"
           y="596.48718"
           x="461.62744"
           id="tspan3975-5-3-0-7"
           sodipodi:role="line">1</tspan></text>
      <text
         sodipodi:linespacing="125%"
         id="text3973-9-1-9-9-4"
         y="596.48718"
         x="481.62744"
         style="font-size:20px;font-style:normal;font-variant:normal;font-weight:normal;font-stretch:normal;text-align:start;line-height:125%;letter-spacing:0px;word-spacing:0px;writing-mode:lr-tb;text-anchor:start;fill:#ff0000;fill-opacity:1;stroke:none;font-family:Arial;-inkscape-font-specification:Arial"
         xml:space="preserve"><tspan
           style="font-size:14px;font-style:normal;font-variant:normal;font-weight:normal;font-stretch:normal;text-align:start;line-height:125%;writing-mode:lr-tb;text-anchor:start;fill:#ff0000;font-family:Arial;-inkscape-font-specification:Arial"
           y="596.48718"
           x="481.62744"
           id="tspan3975-5-3-5-1-9"
           sodipodi:role="line">2</tspan></text>
      <path
         inkscape:connector-curvature="0"
         id="path4189-4"
         d="m 446,584.36218 0,-20"
         style="fill:#ff0000;stroke:#000000;stroke-width:1.15470052px;stroke-linecap:butt;stroke-linejoin:miter;stroke-opacity:1" />
      <path
         inkscape:connector-curvature="0"
         id="path4191-9"
         d="m 486,584.36218 0,-60"
         style="fill:#ff0000;stroke:#000000;stroke-width:1px;stroke-linecap:butt;stroke-linejoin:miter;stroke-opacity:1" />
      <text
         sodipodi:linespacing="125%"
         id="text3973-5-9-5-8"
         y="554.86218"
         x="443"
         style="font-size:20px;font-style:normal;font-variant:normal;font-weight:normal;font-stretch:normal;text-align:start;line-height:125%;letter-spacing:0px;word-spacing:0px;writing-mode:lr-tb;text-anchor:start;fill:#ff0000;fill-opacity:1;stroke:none;font-family:Arial;-inkscape-font-specification:Arial"
         xml:space="preserve"><tspan
           style="font-size:14px;font-style:normal;font-variant:normal;font-weight:normal;font-stretch:normal;text-align:start;line-height:125%;writing-mode:lr-tb;text-anchor:start;fill:#ff0000;font-family:Arial;-inkscape-font-specification:Arial"
           y="554.86218"
           x="443"
           id="tspan3975-0-8-4-5"
           sodipodi:role="line">1</tspan></text>
      <text
         sodipodi:linespacing="125%"
         id="text3973-5-9-5-2-4"
         y="534.86218"
         x="462"
         style="font-size:20px;font-style:normal;font-variant:normal;font-weight:normal;font-stretch:normal;text-align:start;line-height:125%;letter-spacing:0px;word-spacing:0px;writing-mode:lr-tb;text-anchor:start;fill:#ff0000;fill-opacity:1;stroke:none;font-family:Arial;-inkscape-font-specification:Arial"
         xml:space="preserve"><tspan
           style="font-size:14px;font-style:normal;font-variant:normal;font-weight:normal;font-stretch:normal;text-align:start;line-height:125%;writing-mode:lr-tb;text-anchor:start;fill:#ff0000;font-family:Arial;-inkscape-font-specification:Arial"
           y="534.86218"
           x="462"
           id="tspan3975-0-8-4-3-3"
           sodipodi:role="line">2</tspan></text>
      <text
         sodipodi:linespacing="125%"
         id="text3973-5-9-5-5-2"
         y="514.86218"
         x="482"
         style="font-size:20px;font-style:normal;font-variant:normal;font-weight:normal;font-stretch:normal;text-align:start;line-height:125%;letter-spacing:0px;word-spacing:0px;writing-mode:lr-tb;text-anchor:start;fill:#ff0000;fill-opacity:1;stroke:none;font-family:Arial;-inkscape-font-specification:Arial"
         xml:space="preserve"><tspan
           style="font-size:14px;font-style:normal;font-variant:normal;font-weight:normal;font-stretch:normal;text-align:start;line-height:125%;writing-mode:lr-tb;text-anchor:start;fill:#ff0000;font-family:Arial;-inkscape-font-specification:Arial"
           y="514.86218"
           x="482"
           id="tspan3975-0-8-4-38-8"
           sodipodi:role="line">3</tspan></text>
    </g>
  </g>
</svg>
