<?xml version="1.0" encoding="UTF-8" standalone="no"?>
<!-- Created with Inkscape (http://www.inkscape.org/) -->

<svg
   xmlns:dc="http://purl.org/dc/elements/1.1/"
   xmlns:cc="http://creativecommons.org/ns#"
   xmlns:rdf="http://www.w3.org/1999/02/22-rdf-syntax-ns#"
   xmlns:svg="http://www.w3.org/2000/svg"
   xmlns="http://www.w3.org/2000/svg"
   xmlns:sodipodi="http://sodipodi.sourceforge.net/DTD/sodipodi-0.dtd"
   xmlns:inkscape="http://www.inkscape.org/namespaces/inkscape"
   width="210mm"
   height="297mm"
   id="svg3844"
   version="1.1"
   inkscape:version="0.48.3.1 r9886"
   sodipodi:docname="Novo documento 2">
  <defs
     id="defs3846" />
  <sodipodi:namedview
     id="base"
     pagecolor="#ffffff"
     bordercolor="#666666"
     borderopacity="1.0"
     inkscape:pageopacity="0.0"
     inkscape:pageshadow="2"
     inkscape:zoom="0.35"
     inkscape:cx="350"
     inkscape:cy="520"
     inkscape:document-units="px"
     inkscape:current-layer="layer1"
     showgrid="false"
     inkscape:window-width="1215"
     inkscape:window-height="776"
     inkscape:window-x="65"
     inkscape:window-y="24"
     inkscape:window-maximized="1" />
  <metadata
     id="metadata3849">
    <rdf:RDF>
      <cc:Work
         rdf:about="">
        <dc:format>image/svg+xml</dc:format>
        <dc:type
           rdf:resource="http://purl.org/dc/dcmitype/StillImage" />
        <dc:title></dc:title>
      </cc:Work>
    </rdf:RDF>
  </metadata>
  <g
     inkscape:label="Camada 1"
     inkscape:groupmode="layer"
     id="layer1">
    <path
       style="fill:none;stroke:#000000;stroke-width:0.90632695px;stroke-linecap:butt;stroke-linejoin:miter;stroke-opacity:1"
       d="m 94.716781,478.64462 229.999999,0"
       id="path3021"
       inkscape:connector-curvature="0" />
    <path
       sodipodi:type="arc"
       style="fill:#040404;fill-opacity:1;stroke:none"
       id="path3031-3"
       sodipodi:cx="322.5"
       sodipodi:cy="354.86218"
       sodipodi:rx="2.5"
       sodipodi:ry="2.5"
       d="m 325,354.86218 a 2.5,2.5 0 1 1 -5,0 2.5,2.5 0 1 1 5,0 z"
       transform="matrix(1.4,0,0,1.4499997,-227.07179,-75.530442)" />
    <path
       sodipodi:type="arc"
       style="fill:#040404;fill-opacity:1;stroke:none"
       id="path3031-3-4"
       sodipodi:cx="322.5"
       sodipodi:cy="354.86218"
       sodipodi:rx="2.5"
       sodipodi:ry="2.5"
       d="m 325,354.86218 a 2.5,2.5 0 1 1 -5,0 2.5,2.5 0 1 1 5,0 z"
       transform="matrix(1.4,0,0,1.4499997,-247.07179,-55.905442)" />
    <path
       sodipodi:type="arc"
       style="fill:#040404;fill-opacity:1;stroke:none"
       id="path3031-3-1"
       sodipodi:cx="322.5"
       sodipodi:cy="354.86218"
       sodipodi:rx="2.5"
       sodipodi:ry="2.5"
       d="m 325,354.86218 a 2.5,2.5 0 1 1 -5,0 2.5,2.5 0 1 1 5,0 z"
       transform="matrix(1.4,0,0,1.4499997,-266.78322,-116.90544)" />
    <path
       sodipodi:type="arc"
       style="fill:#040404;fill-opacity:1;stroke:none"
       id="path3031-3-1-5"
       sodipodi:cx="322.5"
       sodipodi:cy="354.86218"
       sodipodi:rx="2.5"
       sodipodi:ry="2.5"
       d="m 325,354.86218 a 2.5,2.5 0 1 1 -5,0 2.5,2.5 0 1 1 5,0 z"
       transform="matrix(1.4,0,0,1.4499997,-207.28322,-35.905432)" />
    <path
       sodipodi:type="arc"
       style="fill:#040404;fill-opacity:1;stroke:none"
       id="path3031-3-1-5-3"
       sodipodi:cx="322.5"
       sodipodi:cy="354.86218"
       sodipodi:rx="2.5"
       sodipodi:ry="2.5"
       d="m 325,354.86218 a 2.5,2.5 0 1 1 -5,0 2.5,2.5 0 1 1 5,0 z"
       transform="matrix(1.4,0,0,1.4499997,-186.28322,-35.905432)" />
    <path
       sodipodi:type="arc"
       style="fill:#040404;fill-opacity:1;stroke:none"
       id="path3031-3-1-5-7"
       sodipodi:cx="322.5"
       sodipodi:cy="354.86218"
       sodipodi:rx="2.5"
       sodipodi:ry="2.5"
       d="m 325,354.86218 a 2.5,2.5 0 1 1 -5,0 2.5,2.5 0 1 1 5,0 z"
       transform="matrix(1.4,0,0,1.4499997,-307.28322,-35.905432)" />
    <path
       sodipodi:type="arc"
       style="fill:#040404;fill-opacity:1;stroke:none"
       id="path3031-3-1-5-3-0"
       sodipodi:cx="322.5"
       sodipodi:cy="354.86218"
       sodipodi:rx="2.5"
       sodipodi:ry="2.5"
       d="m 325,354.86218 a 2.5,2.5 0 1 1 -5,0 2.5,2.5 0 1 1 5,0 z"
       transform="matrix(1.4,0,0,1.4499997,-286.28322,-35.905432)" />
    <path
       sodipodi:type="arc"
       style="fill:#040404;fill-opacity:1;stroke:none"
       id="path3031-3-1-5-1"
       sodipodi:cx="322.5"
       sodipodi:cy="354.86218"
       sodipodi:rx="2.5"
       sodipodi:ry="2.5"
       d="m 325,354.86218 a 2.5,2.5 0 1 1 -5,0 2.5,2.5 0 1 1 5,0 z"
       transform="matrix(1.4,0,0,1.4499997,-166.28322,-35.905432)" />
    <path
       sodipodi:type="arc"
       style="fill:#040404;fill-opacity:1;stroke:none"
       id="path3031-3-1-5-3-6"
       sodipodi:cx="322.5"
       sodipodi:cy="354.86218"
       sodipodi:rx="2.5"
       sodipodi:ry="2.5"
       d="m 325,354.86218 a 2.5,2.5 0 1 1 -5,0 2.5,2.5 0 1 1 5,0 z"
       transform="matrix(1.4,0,0,1.4499997,-145.28322,-35.905432)" />
    <path
       sodipodi:type="arc"
       style="fill:#040404;fill-opacity:1;stroke:none"
       id="path3031-3-1-5-7-0"
       sodipodi:cx="322.5"
       sodipodi:cy="354.86218"
       sodipodi:rx="2.5"
       sodipodi:ry="2.5"
       d="m 325,354.86218 a 2.5,2.5 0 1 1 -5,0 2.5,2.5 0 1 1 5,0 z"
       transform="matrix(1.4,0,0,1.4499997,-348.28322,-35.905432)" />
    <path
       sodipodi:type="arc"
       style="fill:#040404;fill-opacity:1;stroke:none"
       id="path3031-3-1-5-3-0-1"
       sodipodi:cx="322.5"
       sodipodi:cy="354.86218"
       sodipodi:rx="2.5"
       sodipodi:ry="2.5"
       d="m 325,354.86218 a 2.5,2.5 0 1 1 -5,0 2.5,2.5 0 1 1 5,0 z"
       transform="matrix(1.4,0,0,1.4499997,-327.28322,-35.905432)" />
    <text
       xml:space="preserve"
       style="font-size:20px;font-style:normal;font-variant:normal;font-weight:normal;font-stretch:normal;text-align:start;line-height:125%;letter-spacing:0px;word-spacing:0px;writing-mode:lr-tb;text-anchor:start;fill:#000000;fill-opacity:1;stroke:none;font-family:Arial;-inkscape-font-specification:Arial"
       x="324.7168"
       y="491.14462"
       id="text3973"
       sodipodi:linespacing="125%"><tspan
         sodipodi:role="line"
         id="tspan3975"
         x="324.7168"
         y="491.14462"
         style="font-size:14px;font-style:normal;font-variant:normal;font-weight:normal;font-stretch:normal;text-align:start;line-height:125%;writing-mode:lr-tb;text-anchor:start;font-family:Arial;-inkscape-font-specification:Arial">n</tspan></text>
    <text
       xml:space="preserve"
       style="font-size:12px;font-style:normal;font-variant:normal;font-weight:normal;font-stretch:normal;text-align:start;line-height:125%;letter-spacing:0px;word-spacing:0px;writing-mode:lr-tb;text-anchor:start;fill:#000000;fill-opacity:1;stroke:none;font-family:Arial;-inkscape-font-specification:Arial"
       x="285.7168"
       y="417.45712"
       id="text3977"
       sodipodi:linespacing="125%"><tspan
         sodipodi:role="line"
         id="tspan3979"
         x="285.7168"
         y="417.45712">x[n]</tspan></text>
    <text
       xml:space="preserve"
       style="font-size:20px;font-style:normal;font-variant:normal;font-weight:normal;font-stretch:normal;text-align:start;line-height:125%;letter-spacing:0px;word-spacing:0px;writing-mode:lr-tb;text-anchor:start;fill:#000000;fill-opacity:1;stroke:none;font-family:Arial;-inkscape-font-specification:Arial"
       x="180.84422"
       y="491.14462"
       id="text3973-9"
       sodipodi:linespacing="125%"><tspan
         sodipodi:role="line"
         id="tspan3975-5"
         x="180.84422"
         y="491.14462"
         style="font-size:14px;font-style:normal;font-variant:normal;font-weight:normal;font-stretch:normal;text-align:start;line-height:125%;writing-mode:lr-tb;text-anchor:start;font-family:Arial;-inkscape-font-specification:Arial">0</tspan></text>
    <text
       xml:space="preserve"
       style="font-size:20px;font-style:normal;font-variant:normal;font-weight:normal;font-stretch:normal;text-align:start;line-height:125%;letter-spacing:0px;word-spacing:0px;writing-mode:lr-tb;text-anchor:start;fill:#000000;fill-opacity:1;stroke:none;font-family:Arial;-inkscape-font-specification:Arial"
       x="200.55565"
       y="491.14462"
       id="text3973-9-1"
       sodipodi:linespacing="125%"><tspan
         sodipodi:role="line"
         id="tspan3975-5-3"
         x="200.55565"
         y="491.14462"
         style="font-size:14px;font-style:normal;font-variant:normal;font-weight:normal;font-stretch:normal;text-align:start;line-height:125%;writing-mode:lr-tb;text-anchor:start;font-family:Arial;-inkscape-font-specification:Arial">1</tspan></text>
    <text
       xml:space="preserve"
       style="font-size:20px;font-style:normal;font-variant:normal;font-weight:normal;font-stretch:normal;text-align:start;line-height:125%;letter-spacing:0px;word-spacing:0px;writing-mode:lr-tb;text-anchor:start;fill:#000000;fill-opacity:1;stroke:none;font-family:Arial;-inkscape-font-specification:Arial"
       x="220.55565"
       y="491.14462"
       id="text3973-9-1-9"
       sodipodi:linespacing="125%"><tspan
         sodipodi:role="line"
         id="tspan3975-5-3-5"
         x="220.55565"
         y="491.14462"
         style="font-size:14px;font-style:normal;font-variant:normal;font-weight:normal;font-stretch:normal;text-align:start;line-height:125%;writing-mode:lr-tb;text-anchor:start;font-family:Arial;-inkscape-font-specification:Arial">2</tspan></text>
    <path
       style="fill:none;stroke:#000000;stroke-width:1px;stroke-linecap:butt;stroke-linejoin:miter;stroke-opacity:1"
       d="m 184.71678,478.64462 0,-80"
       id="path4195"
       inkscape:connector-curvature="0" />
    <path
       style="fill:none;stroke:#000000;stroke-width:1px;stroke-linecap:butt;stroke-linejoin:miter;stroke-opacity:1"
       d="m 204.71678,478.64462 0,-20"
       id="path4197"
       inkscape:connector-curvature="0" />
    <path
       style="fill:none;stroke:#000000;stroke-width:1px;stroke-linecap:butt;stroke-linejoin:miter;stroke-opacity:1"
       d="m 224.71678,478.64462 0,-40 0,0"
       id="path4199"
       inkscape:connector-curvature="0" />
    <text
       xml:space="preserve"
       style="font-size:20px;font-style:normal;font-variant:normal;font-weight:normal;font-stretch:normal;text-align:start;line-height:125%;letter-spacing:0px;word-spacing:0px;writing-mode:lr-tb;text-anchor:start;fill:#000000;fill-opacity:1;stroke:none;font-family:Arial;-inkscape-font-specification:Arial"
       x="180.71678"
       y="389.14462"
       id="text3973-5"
       sodipodi:linespacing="125%"><tspan
         sodipodi:role="line"
         id="tspan3975-0"
         x="180.71678"
         y="389.14462"
         style="font-size:14px;font-style:normal;font-variant:normal;font-weight:normal;font-stretch:normal;text-align:start;line-height:125%;writing-mode:lr-tb;text-anchor:start;font-family:Arial;-inkscape-font-specification:Arial">4</tspan></text>
    <text
       xml:space="preserve"
       style="font-size:20px;font-style:normal;font-variant:normal;font-weight:normal;font-stretch:normal;text-align:start;line-height:125%;letter-spacing:0px;word-spacing:0px;writing-mode:lr-tb;text-anchor:start;fill:#000000;fill-opacity:1;stroke:none;font-family:Arial;-inkscape-font-specification:Arial"
       x="200.71678"
       y="452.14462"
       id="text3973-5-9"
       sodipodi:linespacing="125%"><tspan
         sodipodi:role="line"
         id="tspan3975-0-8"
         x="200.71678"
         y="452.14462"
         style="font-size:14px;font-style:normal;font-variant:normal;font-weight:normal;font-stretch:normal;text-align:start;line-height:125%;writing-mode:lr-tb;text-anchor:start;font-family:Arial;-inkscape-font-specification:Arial">1</tspan></text>
    <text
       xml:space="preserve"
       style="font-size:20px;font-style:normal;font-variant:normal;font-weight:normal;font-stretch:normal;text-align:start;line-height:125%;letter-spacing:0px;word-spacing:0px;writing-mode:lr-tb;text-anchor:start;fill:#000000;fill-opacity:1;stroke:none;font-family:Arial;-inkscape-font-specification:Arial"
       x="220.71678"
       y="430.14462"
       id="text3973-5-9-9"
       sodipodi:linespacing="125%"><tspan
         sodipodi:role="line"
         id="tspan3975-0-8-7"
         x="220.71678"
         y="430.14462"
         style="font-size:14px;font-style:normal;font-variant:normal;font-weight:normal;font-stretch:normal;text-align:start;line-height:125%;writing-mode:lr-tb;text-anchor:start;font-family:Arial;-inkscape-font-specification:Arial">2</tspan></text>
    <g
       id="g4881"
       transform="translate(15.839828,36.282438)">
      <path
         inkscape:connector-curvature="0"
         id="path3021-3"
         d="m 354.78857,441.98718 230,0"
         style="fill:none;stroke:#000000;stroke-width:0.90632695px;stroke-linecap:butt;stroke-linejoin:miter;stroke-opacity:1" />
      <path
         inkscape:connector-curvature="0"
         id="path3027-6"
         d="m 464.5,441.98718 0,-40"
         style="fill:none;stroke:#000000;stroke-width:1px;stroke-linecap:butt;stroke-linejoin:miter;stroke-opacity:1" />
      <path
         transform="matrix(1.4,0,0,1.4499997,33,-132.18788)"
         d="m 325,354.86218 c 0,1.38071 -1.11929,2.5 -2.5,2.5 -1.38071,0 -2.5,-1.11929 -2.5,-2.5 0,-1.38071 1.11929,-2.5 2.5,-2.5 1.38071,0 2.5,1.11929 2.5,2.5 z"
         sodipodi:ry="2.5"
         sodipodi:rx="2.5"
         sodipodi:cy="354.86218"
         sodipodi:cx="322.5"
         id="path3031-3-6"
         style="fill:#040404;fill-opacity:1;stroke:none"
         sodipodi:type="arc" />
      <path
         transform="matrix(1.4,0,0,1.4499997,13,-112.56288)"
         d="m 325,354.86218 c 0,1.38071 -1.11929,2.5 -2.5,2.5 -1.38071,0 -2.5,-1.11929 -2.5,-2.5 0,-1.38071 1.11929,-2.5 2.5,-2.5 1.38071,0 2.5,1.11929 2.5,2.5 z"
         sodipodi:ry="2.5"
         sodipodi:rx="2.5"
         sodipodi:cy="354.86218"
         sodipodi:cx="322.5"
         id="path3031-3-4-8"
         style="fill:#040404;fill-opacity:1;stroke:none"
         sodipodi:type="arc" />
      <path
         transform="matrix(1.4,0,0,1.4499997,-6.71143,-93.56288)"
         d="m 325,354.86218 c 0,1.38071 -1.11929,2.5 -2.5,2.5 -1.38071,0 -2.5,-1.11929 -2.5,-2.5 0,-1.38071 1.11929,-2.5 2.5,-2.5 1.38071,0 2.5,1.11929 2.5,2.5 z"
         sodipodi:ry="2.5"
         sodipodi:rx="2.5"
         sodipodi:cy="354.86218"
         sodipodi:cx="322.5"
         id="path3031-3-1-1"
         style="fill:#040404;fill-opacity:1;stroke:none"
         sodipodi:type="arc" />
      <path
         transform="matrix(1.4,0,0,1.4499997,52.78857,-72.562865)"
         d="m 325,354.86218 c 0,1.38071 -1.11929,2.5 -2.5,2.5 -1.38071,0 -2.5,-1.11929 -2.5,-2.5 0,-1.38071 1.11929,-2.5 2.5,-2.5 1.38071,0 2.5,1.11929 2.5,2.5 z"
         sodipodi:ry="2.5"
         sodipodi:rx="2.5"
         sodipodi:cy="354.86218"
         sodipodi:cx="322.5"
         id="path3031-3-1-5-2"
         style="fill:#040404;fill-opacity:1;stroke:none"
         sodipodi:type="arc" />
      <path
         transform="matrix(1.4,0,0,1.4499997,73.78857,-72.562865)"
         d="m 325,354.86218 c 0,1.38071 -1.11929,2.5 -2.5,2.5 -1.38071,0 -2.5,-1.11929 -2.5,-2.5 0,-1.38071 1.11929,-2.5 2.5,-2.5 1.38071,0 2.5,1.11929 2.5,2.5 z"
         sodipodi:ry="2.5"
         sodipodi:rx="2.5"
         sodipodi:cy="354.86218"
         sodipodi:cx="322.5"
         id="path3031-3-1-5-3-8"
         style="fill:#040404;fill-opacity:1;stroke:none"
         sodipodi:type="arc" />
      <path
         transform="matrix(1.4,0,0,1.4499997,-47.21143,-72.562865)"
         d="m 325,354.86218 c 0,1.38071 -1.11929,2.5 -2.5,2.5 -1.38071,0 -2.5,-1.11929 -2.5,-2.5 0,-1.38071 1.11929,-2.5 2.5,-2.5 1.38071,0 2.5,1.11929 2.5,2.5 z"
         sodipodi:ry="2.5"
         sodipodi:rx="2.5"
         sodipodi:cy="354.86218"
         sodipodi:cx="322.5"
         id="path3031-3-1-5-7-2"
         style="fill:#040404;fill-opacity:1;stroke:none"
         sodipodi:type="arc" />
      <path
         transform="matrix(1.4,0,0,1.4499997,-26.21143,-72.562865)"
         d="m 325,354.86218 c 0,1.38071 -1.11929,2.5 -2.5,2.5 -1.38071,0 -2.5,-1.11929 -2.5,-2.5 0,-1.38071 1.11929,-2.5 2.5,-2.5 1.38071,0 2.5,1.11929 2.5,2.5 z"
         sodipodi:ry="2.5"
         sodipodi:rx="2.5"
         sodipodi:cy="354.86218"
         sodipodi:cx="322.5"
         id="path3031-3-1-5-3-0-2"
         style="fill:#040404;fill-opacity:1;stroke:none"
         sodipodi:type="arc" />
      <path
         transform="matrix(1.4,0,0,1.4499997,93.78857,-72.562865)"
         d="m 325,354.86218 c 0,1.38071 -1.11929,2.5 -2.5,2.5 -1.38071,0 -2.5,-1.11929 -2.5,-2.5 0,-1.38071 1.11929,-2.5 2.5,-2.5 1.38071,0 2.5,1.11929 2.5,2.5 z"
         sodipodi:ry="2.5"
         sodipodi:rx="2.5"
         sodipodi:cy="354.86218"
         sodipodi:cx="322.5"
         id="path3031-3-1-5-1-7"
         style="fill:#040404;fill-opacity:1;stroke:none"
         sodipodi:type="arc" />
      <path
         transform="matrix(1.4,0,0,1.4499997,114.78857,-72.562865)"
         d="m 325,354.86218 c 0,1.38071 -1.11929,2.5 -2.5,2.5 -1.38071,0 -2.5,-1.11929 -2.5,-2.5 0,-1.38071 1.11929,-2.5 2.5,-2.5 1.38071,0 2.5,1.11929 2.5,2.5 z"
         sodipodi:ry="2.5"
         sodipodi:rx="2.5"
         sodipodi:cy="354.86218"
         sodipodi:cx="322.5"
         id="path3031-3-1-5-3-6-4"
         style="fill:#040404;fill-opacity:1;stroke:none"
         sodipodi:type="arc" />
      <path
         transform="matrix(1.4,0,0,1.4499997,-88.21143,-72.562865)"
         d="m 325,354.86218 c 0,1.38071 -1.11929,2.5 -2.5,2.5 -1.38071,0 -2.5,-1.11929 -2.5,-2.5 0,-1.38071 1.11929,-2.5 2.5,-2.5 1.38071,0 2.5,1.11929 2.5,2.5 z"
         sodipodi:ry="2.5"
         sodipodi:rx="2.5"
         sodipodi:cy="354.86218"
         sodipodi:cx="322.5"
         id="path3031-3-1-5-7-0-1"
         style="fill:#040404;fill-opacity:1;stroke:none"
         sodipodi:type="arc" />
      <path
         transform="matrix(1.4,0,0,1.4499997,-67.21143,-72.562865)"
         d="m 325,354.86218 c 0,1.38071 -1.11929,2.5 -2.5,2.5 -1.38071,0 -2.5,-1.11929 -2.5,-2.5 0,-1.38071 1.11929,-2.5 2.5,-2.5 1.38071,0 2.5,1.11929 2.5,2.5 z"
         sodipodi:ry="2.5"
         sodipodi:rx="2.5"
         sodipodi:cy="354.86218"
         sodipodi:cx="322.5"
         id="path3031-3-1-5-3-0-1-2"
         style="fill:#040404;fill-opacity:1;stroke:none"
         sodipodi:type="arc" />
      <text
         sodipodi:linespacing="125%"
         id="text3973-2"
         y="454.48718"
         x="584.78857"
         style="font-size:20px;font-style:normal;font-variant:normal;font-weight:normal;font-stretch:normal;text-align:start;line-height:125%;letter-spacing:0px;word-spacing:0px;writing-mode:lr-tb;text-anchor:start;fill:#000000;fill-opacity:1;stroke:none;font-family:Arial;-inkscape-font-specification:Arial"
         xml:space="preserve"><tspan
           style="font-size:14px;font-style:normal;font-variant:normal;font-weight:normal;font-stretch:normal;text-align:start;line-height:125%;writing-mode:lr-tb;text-anchor:start;font-family:Arial;-inkscape-font-specification:Arial"
           y="454.48718"
           x="584.78857"
           id="tspan3975-4"
           sodipodi:role="line">n</tspan></text>
      <text
         sodipodi:linespacing="125%"
         id="text3977-0"
         y="381.17468"
         x="541.78857"
         style="font-size:12px;font-style:normal;font-variant:normal;font-weight:normal;font-stretch:normal;text-align:start;line-height:125%;letter-spacing:0px;word-spacing:0px;writing-mode:lr-tb;text-anchor:start;fill:#000000;fill-opacity:1;stroke:none;font-family:Arial;-inkscape-font-specification:Arial"
         xml:space="preserve"><tspan
           y="381.17468"
           x="541.78857"
           id="tspan3979-0"
           sodipodi:role="line">h[n]</tspan></text>
      <text
         sodipodi:linespacing="125%"
         id="text3973-9-13"
         y="454.48718"
         x="440.91602"
         style="font-size:20px;font-style:normal;font-variant:normal;font-weight:normal;font-stretch:normal;text-align:start;line-height:125%;letter-spacing:0px;word-spacing:0px;writing-mode:lr-tb;text-anchor:start;fill:#000000;fill-opacity:1;stroke:none;font-family:Arial;-inkscape-font-specification:Arial"
         xml:space="preserve"><tspan
           style="font-size:14px;font-style:normal;font-variant:normal;font-weight:normal;font-stretch:normal;text-align:start;line-height:125%;writing-mode:lr-tb;text-anchor:start;font-family:Arial;-inkscape-font-specification:Arial"
           y="454.48718"
           x="440.91602"
           id="tspan3975-5-2"
           sodipodi:role="line">0</tspan></text>
      <text
         sodipodi:linespacing="125%"
         id="text3973-9-1-0"
         y="454.48718"
         x="460.62744"
         style="font-size:20px;font-style:normal;font-variant:normal;font-weight:normal;font-stretch:normal;text-align:start;line-height:125%;letter-spacing:0px;word-spacing:0px;writing-mode:lr-tb;text-anchor:start;fill:#000000;fill-opacity:1;stroke:none;font-family:Arial;-inkscape-font-specification:Arial"
         xml:space="preserve"><tspan
           style="font-size:14px;font-style:normal;font-variant:normal;font-weight:normal;font-stretch:normal;text-align:start;line-height:125%;writing-mode:lr-tb;text-anchor:start;font-family:Arial;-inkscape-font-specification:Arial"
           y="454.48718"
           x="460.62744"
           id="tspan3975-5-3-0"
           sodipodi:role="line">1</tspan></text>
      <text
         sodipodi:linespacing="125%"
         id="text3973-9-1-9-9"
         y="454.48718"
         x="480.62744"
         style="font-size:20px;font-style:normal;font-variant:normal;font-weight:normal;font-stretch:normal;text-align:start;line-height:125%;letter-spacing:0px;word-spacing:0px;writing-mode:lr-tb;text-anchor:start;fill:#000000;fill-opacity:1;stroke:none;font-family:Arial;-inkscape-font-specification:Arial"
         xml:space="preserve"><tspan
           style="font-size:14px;font-style:normal;font-variant:normal;font-weight:normal;font-stretch:normal;text-align:start;line-height:125%;writing-mode:lr-tb;text-anchor:start;font-family:Arial;-inkscape-font-specification:Arial"
           y="454.48718"
           x="480.62744"
           id="tspan3975-5-3-5-1"
           sodipodi:role="line">2</tspan></text>
      <path
         inkscape:connector-curvature="0"
         id="path4189"
         d="m 445,442.36218 0,-20"
         style="fill:none;stroke:#000000;stroke-width:1.15470052px;stroke-linecap:butt;stroke-linejoin:miter;stroke-opacity:1" />
      <path
         inkscape:connector-curvature="0"
         id="path4191"
         d="m 485,442.36218 0,-60"
         style="fill:none;stroke:#000000;stroke-width:1px;stroke-linecap:butt;stroke-linejoin:miter;stroke-opacity:1" />
      <text
         sodipodi:linespacing="125%"
         id="text3973-5-9-5"
         y="412.86218"
         x="442"
         style="font-size:20px;font-style:normal;font-variant:normal;font-weight:normal;font-stretch:normal;text-align:start;line-height:125%;letter-spacing:0px;word-spacing:0px;writing-mode:lr-tb;text-anchor:start;fill:#000000;fill-opacity:1;stroke:none;font-family:Arial;-inkscape-font-specification:Arial"
         xml:space="preserve"><tspan
           style="font-size:14px;font-style:normal;font-variant:normal;font-weight:normal;font-stretch:normal;text-align:start;line-height:125%;writing-mode:lr-tb;text-anchor:start;font-family:Arial;-inkscape-font-specification:Arial"
           y="412.86218"
           x="442"
           id="tspan3975-0-8-4"
           sodipodi:role="line">1</tspan></text>
      <text
         sodipodi:linespacing="125%"
         id="text3973-5-9-5-2"
         y="392.86218"
         x="461"
         style="font-size:20px;font-style:normal;font-variant:normal;font-weight:normal;font-stretch:normal;text-align:start;line-height:125%;letter-spacing:0px;word-spacing:0px;writing-mode:lr-tb;text-anchor:start;fill:#000000;fill-opacity:1;stroke:none;font-family:Arial;-inkscape-font-specification:Arial"
         xml:space="preserve"><tspan
           style="font-size:14px;font-style:normal;font-variant:normal;font-weight:normal;font-stretch:normal;text-align:start;line-height:125%;writing-mode:lr-tb;text-anchor:start;font-family:Arial;-inkscape-font-specification:Arial"
           y="392.86218"
           x="461"
           id="tspan3975-0-8-4-3"
           sodipodi:role="line">2</tspan></text>
      <text
         sodipodi:linespacing="125%"
         id="text3973-5-9-5-5"
         y="372.86218"
         x="481"
         style="font-size:20px;font-style:normal;font-variant:normal;font-weight:normal;font-stretch:normal;text-align:start;line-height:125%;letter-spacing:0px;word-spacing:0px;writing-mode:lr-tb;text-anchor:start;fill:#000000;fill-opacity:1;stroke:none;font-family:Arial;-inkscape-font-specification:Arial"
         xml:space="preserve"><tspan
           style="font-size:14px;font-style:normal;font-variant:normal;font-weight:normal;font-stretch:normal;text-align:start;line-height:125%;writing-mode:lr-tb;text-anchor:start;font-family:Arial;-inkscape-font-specification:Arial"
           y="372.86218"
           x="481"
           id="tspan3975-0-8-4-38"
           sodipodi:role="line">3</tspan></text>
    </g>
  </g>
</svg>
