<?xml version="1.0" encoding="UTF-8" standalone="no"?>
<!-- Created with Inkscape (http://www.inkscape.org/) -->

<svg
   xmlns:dc="http://purl.org/dc/elements/1.1/"
   xmlns:cc="http://creativecommons.org/ns#"
   xmlns:rdf="http://www.w3.org/1999/02/22-rdf-syntax-ns#"
   xmlns:svg="http://www.w3.org/2000/svg"
   xmlns="http://www.w3.org/2000/svg"
   xmlns:sodipodi="http://sodipodi.sourceforge.net/DTD/sodipodi-0.dtd"
   xmlns:inkscape="http://www.inkscape.org/namespaces/inkscape"
   width="210mm"
   height="297mm"
   id="svg4770"
   version="1.1"
   inkscape:version="0.48.3.1 r9886"
   sodipodi:docname="step1.svg">
  <defs
     id="defs4772" />
  <sodipodi:namedview
     id="base"
     pagecolor="#ffffff"
     bordercolor="#666666"
     borderopacity="1.0"
     inkscape:pageopacity="0.0"
     inkscape:pageshadow="2"
     inkscape:zoom="1.5208438"
     inkscape:cx="396.91233"
     inkscape:cy="520"
     inkscape:document-units="px"
     inkscape:current-layer="layer1"
     showgrid="false"
     inkscape:window-width="1215"
     inkscape:window-height="776"
     inkscape:window-x="65"
     inkscape:window-y="24"
     inkscape:window-maximized="1" />
  <metadata
     id="metadata4775">
    <rdf:RDF>
      <cc:Work
         rdf:about="">
        <dc:format>image/svg+xml</dc:format>
        <dc:type
           rdf:resource="http://purl.org/dc/dcmitype/StillImage" />
        <dc:title></dc:title>
      </cc:Work>
    </rdf:RDF>
  </metadata>
  <g
     inkscape:label="Camada 1"
     inkscape:groupmode="layer"
     id="layer1">
    <path
       style="fill:#000080;stroke:#000000;stroke-width:0.90632695px;stroke-linecap:butt;stroke-linejoin:miter;stroke-opacity:1"
       d="m 97.76955,493.44435 229.99999,0"
       id="path3021-2-7"
       inkscape:connector-curvature="0" />
    <path
       sodipodi:type="arc"
       style="fill:#000080;fill-opacity:1;stroke:none"
       id="path3031-3-5-2"
       sodipodi:cx="322.5"
       sodipodi:cy="354.86218"
       sodipodi:rx="2.5"
       sodipodi:ry="2.5"
       d="m 325,354.86218 a 2.5,2.5 0 1 1 -5,0 2.5,2.5 0 1 1 5,0 z"
       transform="matrix(1.4,0,0,1.4499997,-224.01903,-60.730711)" />
    <path
       sodipodi:type="arc"
       style="fill:#000080;fill-opacity:1;stroke:none"
       id="path3031-3-4-5-5"
       sodipodi:cx="322.5"
       sodipodi:cy="354.86218"
       sodipodi:rx="2.5"
       sodipodi:ry="2.5"
       d="m 325,354.86218 a 2.5,2.5 0 1 1 -5,0 2.5,2.5 0 1 1 5,0 z"
       transform="matrix(1.4,0,0,1.4499997,-244.01903,-41.105711)" />
    <path
       sodipodi:type="arc"
       style="fill:#000080;fill-opacity:1;stroke:none"
       id="path3031-3-1-3-7"
       sodipodi:cx="322.5"
       sodipodi:cy="354.86218"
       sodipodi:rx="2.5"
       sodipodi:ry="2.5"
       d="m 325,354.86218 a 2.5,2.5 0 1 1 -5,0 2.5,2.5 0 1 1 5,0 z"
       transform="matrix(1.4,0,0,1.4499997,-263.73046,-102.10571)" />
    <path
       sodipodi:type="arc"
       style="fill:#000080;fill-opacity:1;stroke:none"
       id="path3031-3-1-5-4-1"
       sodipodi:cx="322.5"
       sodipodi:cy="354.86218"
       sodipodi:rx="2.5"
       sodipodi:ry="2.5"
       d="m 325,354.86218 a 2.5,2.5 0 1 1 -5,0 2.5,2.5 0 1 1 5,0 z"
       transform="matrix(1.4,0,0,1.4499997,-204.23046,-21.105701)" />
    <path
       sodipodi:type="arc"
       style="fill:#000080;fill-opacity:1;stroke:none"
       id="path3031-3-1-5-3-2-5"
       sodipodi:cx="322.5"
       sodipodi:cy="354.86218"
       sodipodi:rx="2.5"
       sodipodi:ry="2.5"
       d="m 325,354.86218 a 2.5,2.5 0 1 1 -5,0 2.5,2.5 0 1 1 5,0 z"
       transform="matrix(1.4,0,0,1.4499997,-183.23046,-21.105701)" />
    <path
       sodipodi:type="arc"
       style="fill:#000080;fill-opacity:1;stroke:none"
       id="path3031-3-1-5-7-4-8"
       sodipodi:cx="322.5"
       sodipodi:cy="354.86218"
       sodipodi:rx="2.5"
       sodipodi:ry="2.5"
       d="m 325,354.86218 a 2.5,2.5 0 1 1 -5,0 2.5,2.5 0 1 1 5,0 z"
       transform="matrix(1.4,0,0,1.4499997,-304.23046,-21.105701)" />
    <path
       sodipodi:type="arc"
       style="fill:#000080;fill-opacity:1;stroke:none"
       id="path3031-3-1-5-3-0-6-3"
       sodipodi:cx="322.5"
       sodipodi:cy="354.86218"
       sodipodi:rx="2.5"
       sodipodi:ry="2.5"
       d="m 325,354.86218 a 2.5,2.5 0 1 1 -5,0 2.5,2.5 0 1 1 5,0 z"
       transform="matrix(1.4,0,0,1.4499997,-283.23046,-21.105701)" />
    <path
       sodipodi:type="arc"
       style="fill:#000080;fill-opacity:1;stroke:none"
       id="path3031-3-1-5-1-1-4"
       sodipodi:cx="322.5"
       sodipodi:cy="354.86218"
       sodipodi:rx="2.5"
       sodipodi:ry="2.5"
       d="m 325,354.86218 a 2.5,2.5 0 1 1 -5,0 2.5,2.5 0 1 1 5,0 z"
       transform="matrix(1.4,0,0,1.4499997,-163.23046,-21.105701)" />
    <path
       sodipodi:type="arc"
       style="fill:#000080;fill-opacity:1;stroke:none"
       id="path3031-3-1-5-3-6-1-5"
       sodipodi:cx="322.5"
       sodipodi:cy="354.86218"
       sodipodi:rx="2.5"
       sodipodi:ry="2.5"
       d="m 325,354.86218 a 2.5,2.5 0 1 1 -5,0 2.5,2.5 0 1 1 5,0 z"
       transform="matrix(1.4,0,0,1.4499997,-142.23046,-21.105701)" />
    <path
       sodipodi:type="arc"
       style="fill:#000080;fill-opacity:1;stroke:none"
       id="path3031-3-1-5-7-0-7-4"
       sodipodi:cx="322.5"
       sodipodi:cy="354.86218"
       sodipodi:rx="2.5"
       sodipodi:ry="2.5"
       d="m 325,354.86218 a 2.5,2.5 0 1 1 -5,0 2.5,2.5 0 1 1 5,0 z"
       transform="matrix(1.4,0,0,1.4499997,-345.23046,-21.105701)" />
    <path
       sodipodi:type="arc"
       style="fill:#000080;fill-opacity:1;stroke:none"
       id="path3031-3-1-5-3-0-1-9-1"
       sodipodi:cx="322.5"
       sodipodi:cy="354.86218"
       sodipodi:rx="2.5"
       sodipodi:ry="2.5"
       d="m 325,354.86218 a 2.5,2.5 0 1 1 -5,0 2.5,2.5 0 1 1 5,0 z"
       transform="matrix(1.4,0,0,1.4499997,-324.23046,-21.105701)" />
    <text
       xml:space="preserve"
       style="font-size:20px;font-style:normal;font-variant:normal;font-weight:normal;font-stretch:normal;text-align:start;line-height:125%;letter-spacing:0px;word-spacing:0px;writing-mode:lr-tb;text-anchor:start;fill:#000080;fill-opacity:1;stroke:none;font-family:Arial;-inkscape-font-specification:Arial"
       x="327.76953"
       y="505.94434"
       id="text3973-7-7"
       sodipodi:linespacing="125%"><tspan
         sodipodi:role="line"
         id="tspan3975-04-1"
         x="327.76953"
         y="505.94434"
         style="font-size:14px;font-style:normal;font-variant:normal;font-weight:normal;font-stretch:normal;text-align:start;line-height:125%;writing-mode:lr-tb;text-anchor:start;fill:#000080;font-family:Arial;-inkscape-font-specification:Arial">k</tspan></text>
    <text
       xml:space="preserve"
       style="font-size:12px;font-style:normal;font-variant:normal;font-weight:normal;font-stretch:normal;text-align:start;line-height:125%;letter-spacing:0px;word-spacing:0px;writing-mode:lr-tb;text-anchor:start;fill:#000080;fill-opacity:1;stroke:none;font-family:Arial;-inkscape-font-specification:Arial"
       x="288.76953"
       y="432.25687"
       id="text3977-5-6"
       sodipodi:linespacing="125%"><tspan
         sodipodi:role="line"
         id="tspan3979-5-7"
         x="288.76953"
         y="432.25687">x[k]</tspan></text>
    <text
       xml:space="preserve"
       style="font-size:20px;font-style:normal;font-variant:normal;font-weight:normal;font-stretch:normal;text-align:start;line-height:125%;letter-spacing:0px;word-spacing:0px;writing-mode:lr-tb;text-anchor:start;fill:#000080;fill-opacity:1;stroke:none;font-family:Arial;-inkscape-font-specification:Arial"
       x="183.89697"
       y="505.94434"
       id="text3973-9-7-9"
       sodipodi:linespacing="125%"><tspan
         sodipodi:role="line"
         id="tspan3975-5-0-0"
         x="183.89697"
         y="505.94434"
         style="font-size:14px;font-style:normal;font-variant:normal;font-weight:normal;font-stretch:normal;text-align:start;line-height:125%;writing-mode:lr-tb;text-anchor:start;fill:#000080;font-family:Arial;-inkscape-font-specification:Arial">0</tspan></text>
    <text
       xml:space="preserve"
       style="font-size:20px;font-style:normal;font-variant:normal;font-weight:normal;font-stretch:normal;text-align:start;line-height:125%;letter-spacing:0px;word-spacing:0px;writing-mode:lr-tb;text-anchor:start;fill:#000080;fill-opacity:1;stroke:none;font-family:Arial;-inkscape-font-specification:Arial"
       x="203.6084"
       y="505.94434"
       id="text3973-9-1-4-5"
       sodipodi:linespacing="125%"><tspan
         sodipodi:role="line"
         id="tspan3975-5-3-7-2"
         x="203.6084"
         y="505.94434"
         style="font-size:14px;font-style:normal;font-variant:normal;font-weight:normal;font-stretch:normal;text-align:start;line-height:125%;writing-mode:lr-tb;text-anchor:start;fill:#000080;font-family:Arial;-inkscape-font-specification:Arial">1</tspan></text>
    <text
       xml:space="preserve"
       style="font-size:20px;font-style:normal;font-variant:normal;font-weight:normal;font-stretch:normal;text-align:start;line-height:125%;letter-spacing:0px;word-spacing:0px;writing-mode:lr-tb;text-anchor:start;fill:#000080;fill-opacity:1;stroke:none;font-family:Arial;-inkscape-font-specification:Arial"
       x="223.6084"
       y="505.94434"
       id="text3973-9-1-9-5-1"
       sodipodi:linespacing="125%"><tspan
         sodipodi:role="line"
         id="tspan3975-5-3-5-6-2"
         x="223.6084"
         y="505.94434"
         style="font-size:14px;font-style:normal;font-variant:normal;font-weight:normal;font-stretch:normal;text-align:start;line-height:125%;writing-mode:lr-tb;text-anchor:start;fill:#000080;font-family:Arial;-inkscape-font-specification:Arial">2</tspan></text>
    <path
       style="fill:#000080;stroke:#000000;stroke-width:1px;stroke-linecap:butt;stroke-linejoin:miter;stroke-opacity:1"
       d="m 187.76955,493.44435 0,-80"
       id="path4195-8-1"
       inkscape:connector-curvature="0" />
    <path
       style="fill:#000080;stroke:#000000;stroke-width:1px;stroke-linecap:butt;stroke-linejoin:miter;stroke-opacity:1"
       d="m 207.76954,493.44435 0,-20"
       id="path4197-6-2"
       inkscape:connector-curvature="0" />
    <path
       style="fill:#000080;stroke:#000000;stroke-width:1px;stroke-linecap:butt;stroke-linejoin:miter;stroke-opacity:1"
       d="m 227.76954,493.44435 0,-40 0,0"
       id="path4199-3-8"
       inkscape:connector-curvature="0" />
    <text
       xml:space="preserve"
       style="font-size:20px;font-style:normal;font-variant:normal;font-weight:normal;font-stretch:normal;text-align:start;line-height:125%;letter-spacing:0px;word-spacing:0px;writing-mode:lr-tb;text-anchor:start;fill:#000080;fill-opacity:1;stroke:none;font-family:Arial;-inkscape-font-specification:Arial"
       x="183.76953"
       y="403.94437"
       id="text3973-5-8-4"
       sodipodi:linespacing="125%"><tspan
         sodipodi:role="line"
         id="tspan3975-0-2-3"
         x="183.76953"
         y="403.94437"
         style="font-size:14px;font-style:normal;font-variant:normal;font-weight:normal;font-stretch:normal;text-align:start;line-height:125%;writing-mode:lr-tb;text-anchor:start;fill:#000080;font-family:Arial;-inkscape-font-specification:Arial">4</tspan></text>
    <text
       xml:space="preserve"
       style="font-size:20px;font-style:normal;font-variant:normal;font-weight:normal;font-stretch:normal;text-align:start;line-height:125%;letter-spacing:0px;word-spacing:0px;writing-mode:lr-tb;text-anchor:start;fill:#000080;fill-opacity:1;stroke:none;font-family:Arial;-inkscape-font-specification:Arial"
       x="203.76953"
       y="466.94437"
       id="text3973-5-9-97-5"
       sodipodi:linespacing="125%"><tspan
         sodipodi:role="line"
         id="tspan3975-0-8-0-2"
         x="203.76953"
         y="466.94437"
         style="font-size:14px;font-style:normal;font-variant:normal;font-weight:normal;font-stretch:normal;text-align:start;line-height:125%;writing-mode:lr-tb;text-anchor:start;fill:#000080;font-family:Arial;-inkscape-font-specification:Arial">1</tspan></text>
    <text
       xml:space="preserve"
       style="font-size:20px;font-style:normal;font-variant:normal;font-weight:normal;font-stretch:normal;text-align:start;line-height:125%;letter-spacing:0px;word-spacing:0px;writing-mode:lr-tb;text-anchor:start;fill:#000080;fill-opacity:1;stroke:none;font-family:Arial;-inkscape-font-specification:Arial"
       x="223.76953"
       y="444.94437"
       id="text3973-5-9-9-1-7"
       sodipodi:linespacing="125%"><tspan
         sodipodi:role="line"
         id="tspan3975-0-8-7-7-8"
         x="223.76953"
         y="444.94437"
         style="font-size:14px;font-style:normal;font-variant:normal;font-weight:normal;font-stretch:normal;text-align:start;line-height:125%;writing-mode:lr-tb;text-anchor:start;fill:#000080;font-family:Arial;-inkscape-font-specification:Arial">2</tspan></text>
    <path
       style="fill:#ff0000;stroke:#000000;stroke-width:1px;stroke-linecap:butt;stroke-linejoin:miter;stroke-opacity:1"
       d="m 127.33884,493.06935 0,-40"
       id="path3027-6-6-9-7-6"
       inkscape:connector-curvature="0" />
    <path
       sodipodi:type="arc"
       style="fill:#ff0000;fill-opacity:1;stroke:none"
       id="path3031-3-6-9-0-8-0"
       sodipodi:cx="322.5"
       sodipodi:cy="354.86218"
       sodipodi:rx="2.5"
       sodipodi:ry="2.5"
       d="m 325,354.86218 a 2.5,2.5 0 1 1 -5,0 2.5,2.5 0 1 1 5,0 z"
       transform="matrix(-1.4,0,0,1.4499997,558.83884,-81.105711)" />
    <path
       sodipodi:type="arc"
       style="fill:#ff0000;fill-opacity:1;stroke:none"
       id="path3031-3-4-8-0-1-1-6"
       sodipodi:cx="322.5"
       sodipodi:cy="354.86218"
       sodipodi:rx="2.5"
       sodipodi:ry="2.5"
       d="m 325,354.86218 a 2.5,2.5 0 1 1 -5,0 2.5,2.5 0 1 1 5,0 z"
       transform="matrix(-1.4,0,0,1.4499997,578.83884,-61.480711)" />
    <path
       sodipodi:type="arc"
       style="fill:#ff0000;fill-opacity:1;stroke:none"
       id="path3031-3-1-1-8-6-7-5"
       sodipodi:cx="322.5"
       sodipodi:cy="354.86218"
       sodipodi:rx="2.5"
       sodipodi:ry="2.5"
       d="m 325,354.86218 a 2.5,2.5 0 1 1 -5,0 2.5,2.5 0 1 1 5,0 z"
       transform="matrix(-1.4,0,0,1.4499997,598.55024,-42.480711)" />
    <path
       style="fill:#ff0000;stroke:#000000;stroke-width:1.15470052px;stroke-linecap:butt;stroke-linejoin:miter;stroke-opacity:1"
       d="m 146.83884,493.44435 0,-20"
       id="path4189-4-3-2-2"
       inkscape:connector-curvature="0" />
    <path
       style="fill:#ff0000;stroke:#000000;stroke-width:1px;stroke-linecap:butt;stroke-linejoin:miter;stroke-opacity:1"
       d="m 106.83884,493.44435 0,-60"
       id="path4191-9-1-5-4"
       inkscape:connector-curvature="0" />
    <text
       xml:space="preserve"
       style="font-size:20px;font-style:normal;font-variant:normal;font-weight:normal;font-stretch:normal;text-align:start;line-height:125%;letter-spacing:0px;word-spacing:0px;writing-mode:lr-tb;text-anchor:start;fill:#ff0000;fill-opacity:1;stroke:none;font-family:Arial;-inkscape-font-specification:Arial"
       x="103.76956"
       y="425.94437"
       id="text3973-5-9-5-5-2-1-5-0"
       sodipodi:linespacing="125%"><tspan
         sodipodi:role="line"
         id="tspan3975-0-8-4-38-8-2-6-9"
         x="103.76956"
         y="425.94437"
         style="font-size:14px;font-style:normal;font-variant:normal;font-weight:normal;font-stretch:normal;text-align:start;line-height:125%;writing-mode:lr-tb;text-anchor:start;fill:#ff0000;font-family:Arial;-inkscape-font-specification:Arial">3</tspan></text>
    <text
       xml:space="preserve"
       style="font-size:20px;font-style:normal;font-variant:normal;font-weight:normal;font-stretch:normal;text-align:start;line-height:125%;letter-spacing:0px;word-spacing:0px;writing-mode:lr-tb;text-anchor:start;fill:#ff0000;fill-opacity:1;stroke:none;font-family:Arial;-inkscape-font-specification:Arial"
       x="122.76956"
       y="444.94437"
       id="text3973-5-9-5-2-4-3-0-7"
       sodipodi:linespacing="125%"><tspan
         sodipodi:role="line"
         id="tspan3975-0-8-4-3-3-1-8-9"
         x="122.76956"
         y="444.94437"
         style="font-size:14px;font-style:normal;font-variant:normal;font-weight:normal;font-stretch:normal;text-align:start;line-height:125%;writing-mode:lr-tb;text-anchor:start;fill:#ff0000;font-family:Arial;-inkscape-font-specification:Arial">2</tspan></text>
    <text
       xml:space="preserve"
       style="font-size:20px;font-style:normal;font-variant:normal;font-weight:normal;font-stretch:normal;text-align:start;line-height:125%;letter-spacing:0px;word-spacing:0px;writing-mode:lr-tb;text-anchor:start;fill:#ff0000;fill-opacity:1;stroke:none;font-family:Arial;-inkscape-font-specification:Arial"
       x="142.76956"
       y="465.94437"
       id="text3973-5-9-5-8-1-7-5"
       sodipodi:linespacing="125%"><tspan
         sodipodi:role="line"
         id="tspan3975-0-8-4-5-6-8-8"
         x="142.76956"
         y="465.94437"
         style="font-size:14px;font-style:normal;font-variant:normal;font-weight:normal;font-stretch:normal;text-align:start;line-height:125%;writing-mode:lr-tb;text-anchor:start;fill:#ff0000;font-family:Arial;-inkscape-font-specification:Arial">1</tspan></text>
    <text
       xml:space="preserve"
       style="font-size:20px;font-style:normal;font-variant:normal;font-weight:normal;font-stretch:normal;text-align:start;line-height:125%;letter-spacing:0px;word-spacing:0px;writing-mode:lr-tb;text-anchor:start;fill:#ff0000;fill-opacity:1;stroke:none;font-family:Arial;-inkscape-font-specification:Arial"
       x="288.68555"
       y="411.56937"
       id="text3973-9-13-0-6-1-9-2-8"
       sodipodi:linespacing="125%"><tspan
         sodipodi:role="line"
         id="tspan3975-5-2-4-2-1-3-8-7"
         x="288.68555"
         y="411.56937"
         style="font-size:14px;font-style:normal;font-variant:normal;font-weight:normal;font-stretch:normal;text-align:start;line-height:125%;writing-mode:lr-tb;text-anchor:start;fill:#ff0000;font-family:Arial;-inkscape-font-specification:Arial">n=-2</tspan></text>
    <path
       style="fill:#008000;stroke:#000000;stroke-width:0.90632695px;stroke-linecap:butt;stroke-linejoin:miter;stroke-opacity:1"
       d="m 98.76955,590.94436 229.99999,0"
       id="path3021-2-7-7"
       inkscape:connector-curvature="0" />
    <path
       sodipodi:type="arc"
       style="fill:#008000;fill-opacity:1;stroke:none"
       id="path3031-3-1-5-4-1-3"
       sodipodi:cx="322.5"
       sodipodi:cy="354.86218"
       sodipodi:rx="2.5"
       sodipodi:ry="2.5"
       d="m 325,354.86218 a 2.5,2.5 0 1 1 -5,0 2.5,2.5 0 1 1 5,0 z"
       transform="matrix(1.4,0,0,1.4499997,-203.23046,76.394299)" />
    <path
       sodipodi:type="arc"
       style="fill:#008000;fill-opacity:1;stroke:none"
       id="path3031-3-1-5-3-2-5-6"
       sodipodi:cx="322.5"
       sodipodi:cy="354.86218"
       sodipodi:rx="2.5"
       sodipodi:ry="2.5"
       d="m 325,354.86218 a 2.5,2.5 0 1 1 -5,0 2.5,2.5 0 1 1 5,0 z"
       transform="matrix(1.4,0,0,1.4499997,-182.23046,76.394299)" />
    <path
       sodipodi:type="arc"
       style="fill:#008000;fill-opacity:1;stroke:none"
       id="path3031-3-1-5-7-4-8-8"
       sodipodi:cx="322.5"
       sodipodi:cy="354.86218"
       sodipodi:rx="2.5"
       sodipodi:ry="2.5"
       d="m 325,354.86218 a 2.5,2.5 0 1 1 -5,0 2.5,2.5 0 1 1 5,0 z"
       transform="matrix(1.4,0,0,1.4499997,-303.23046,76.394299)" />
    <path
       sodipodi:type="arc"
       style="fill:#008000;fill-opacity:1;stroke:none"
       id="path3031-3-1-5-3-0-6-3-3"
       sodipodi:cx="322.5"
       sodipodi:cy="354.86218"
       sodipodi:rx="2.5"
       sodipodi:ry="2.5"
       d="m 325,354.86218 a 2.5,2.5 0 1 1 -5,0 2.5,2.5 0 1 1 5,0 z"
       transform="matrix(1.4,0,0,1.4499997,-282.23046,76.394299)" />
    <path
       sodipodi:type="arc"
       style="fill:#008000;fill-opacity:1;stroke:none"
       id="path3031-3-1-5-1-1-4-7"
       sodipodi:cx="322.5"
       sodipodi:cy="354.86218"
       sodipodi:rx="2.5"
       sodipodi:ry="2.5"
       d="m 325,354.86218 a 2.5,2.5 0 1 1 -5,0 2.5,2.5 0 1 1 5,0 z"
       transform="matrix(1.4,0,0,1.4499997,-162.23046,76.394299)" />
    <path
       sodipodi:type="arc"
       style="fill:#008000;fill-opacity:1;stroke:none"
       id="path3031-3-1-5-3-6-1-5-3"
       sodipodi:cx="322.5"
       sodipodi:cy="354.86218"
       sodipodi:rx="2.5"
       sodipodi:ry="2.5"
       d="m 325,354.86218 a 2.5,2.5 0 1 1 -5,0 2.5,2.5 0 1 1 5,0 z"
       transform="matrix(1.4,0,0,1.4499997,-141.23046,76.394299)" />
    <path
       sodipodi:type="arc"
       style="fill:#008000;fill-opacity:1;stroke:none"
       id="path3031-3-1-5-7-0-7-4-6"
       sodipodi:cx="322.5"
       sodipodi:cy="354.86218"
       sodipodi:rx="2.5"
       sodipodi:ry="2.5"
       d="m 325,354.86218 a 2.5,2.5 0 1 1 -5,0 2.5,2.5 0 1 1 5,0 z"
       transform="matrix(1.4,0,0,1.4499997,-344.23046,76.394299)" />
    <path
       sodipodi:type="arc"
       style="fill:#008000;fill-opacity:1;stroke:none"
       id="path3031-3-1-5-3-0-1-9-1-9"
       sodipodi:cx="322.5"
       sodipodi:cy="354.86218"
       sodipodi:rx="2.5"
       sodipodi:ry="2.5"
       d="m 325,354.86218 a 2.5,2.5 0 1 1 -5,0 2.5,2.5 0 1 1 5,0 z"
       transform="matrix(1.4,0,0,1.4499997,-323.23046,76.394299)" />
    <path
       sodipodi:type="arc"
       style="fill:#008000;fill-opacity:1;stroke:none"
       id="path3031-3-1-5-7-4-8-8-1"
       sodipodi:cx="322.5"
       sodipodi:cy="354.86218"
       sodipodi:rx="2.5"
       sodipodi:ry="2.5"
       d="m 325,354.86218 a 2.5,2.5 0 1 1 -5,0 2.5,2.5 0 1 1 5,0 z"
       transform="matrix(1.4,0,0,1.4499997,-259.23046,76.394299)" />
    <path
       sodipodi:type="arc"
       style="fill:#008000;fill-opacity:1;stroke:none"
       id="path3031-3-1-5-3-0-6-3-3-2"
       sodipodi:cx="322.5"
       sodipodi:cy="354.86218"
       sodipodi:rx="2.5"
       sodipodi:ry="2.5"
       d="m 325,354.86218 a 2.5,2.5 0 1 1 -5,0 2.5,2.5 0 1 1 5,0 z"
       transform="matrix(1.4,0,0,1.4499997,-238.23046,76.394299)" />
    <path
       sodipodi:type="arc"
       style="fill:#008000;fill-opacity:1;stroke:none"
       id="path3031-3-1-5-4-1-3-0"
       sodipodi:cx="322.5"
       sodipodi:cy="354.86218"
       sodipodi:rx="2.5"
       sodipodi:ry="2.5"
       d="m 325,354.86218 a 2.5,2.5 0 1 1 -5,0 2.5,2.5 0 1 1 5,0 z"
       transform="matrix(1.4,0,0,1.4499997,-221.23046,76.394299)" />
    <text
       xml:space="preserve"
       style="font-size:12px;font-style:normal;font-variant:normal;font-weight:normal;font-stretch:normal;text-align:start;line-height:125%;letter-spacing:0px;word-spacing:0px;writing-mode:lr-tb;text-anchor:start;fill:#008000;fill-opacity:1;stroke:none;font-family:Arial;-inkscape-font-specification:Arial"
       x="290.76953"
       y="544.25684"
       id="text3977-5-6-6"
       sodipodi:linespacing="125%"><tspan
         sodipodi:role="line"
         id="tspan3979-5-7-5"
         x="290.76953"
         y="544.25684">x[k]h[-2-k]</tspan></text>
    <path
       style="fill:#800080;stroke:#000000;stroke-width:0.90632695px;stroke-linecap:butt;stroke-linejoin:miter;stroke-opacity:1"
       d="m 398.76955,529.94436 229.99999,0"
       id="path3021-2-7-7-6"
       inkscape:connector-curvature="0" />
    <path
       sodipodi:type="arc"
       style="fill:#800080;fill-opacity:1;stroke:none"
       id="path3031-3-1-5-7-4-8-8-3"
       sodipodi:cx="322.5"
       sodipodi:cy="354.86218"
       sodipodi:rx="2.5"
       sodipodi:ry="2.5"
       d="m 325,354.86218 a 2.5,2.5 0 1 1 -5,0 2.5,2.5 0 1 1 5,0 z"
       transform="matrix(1.4,0,0,1.4499997,-3.23046,15.3943)" />
    <path
       sodipodi:type="arc"
       style="fill:#800080;fill-opacity:1;stroke:none"
       id="path3031-3-1-5-7-0-7-4-6-0"
       sodipodi:cx="322.5"
       sodipodi:cy="354.86218"
       sodipodi:rx="2.5"
       sodipodi:ry="2.5"
       d="m 325,354.86218 a 2.5,2.5 0 1 1 -5,0 2.5,2.5 0 1 1 5,0 z"
       transform="matrix(1.4,0,0,1.4499997,-44.23046,15.3943)" />
    <path
       sodipodi:type="arc"
       style="fill:#800080;fill-opacity:1;stroke:none"
       id="path3031-3-1-5-3-0-1-9-1-9-0"
       sodipodi:cx="322.5"
       sodipodi:cy="354.86218"
       sodipodi:rx="2.5"
       sodipodi:ry="2.5"
       d="m 325,354.86218 a 2.5,2.5 0 1 1 -5,0 2.5,2.5 0 1 1 5,0 z"
       transform="matrix(1.4,0,0,1.4499997,-23.23046,15.3943)" />
    <text
       xml:space="preserve"
       style="font-size:12px;font-style:normal;font-variant:normal;font-weight:normal;font-stretch:normal;text-align:start;line-height:125%;letter-spacing:0px;word-spacing:0px;writing-mode:lr-tb;text-anchor:start;fill:#800080;fill-opacity:1;stroke:none;font-family:Arial;-inkscape-font-specification:Arial"
       x="590.76953"
       y="483.25684"
       id="text3977-5-6-6-4"
       sodipodi:linespacing="125%"><tspan
         sodipodi:role="line"
         id="tspan3979-5-7-5-4"
         x="590.76953"
         y="483.25684">y[n]</tspan></text>
    <text
       xml:space="preserve"
       style="font-size:20px;font-style:normal;font-variant:normal;font-weight:normal;font-stretch:normal;text-align:start;line-height:125%;letter-spacing:0px;word-spacing:0px;writing-mode:lr-tb;text-anchor:start;fill:#008000;fill-opacity:1;stroke:none;font-family:Arial;-inkscape-font-specification:Arial"
       x="330.76953"
       y="603.94434"
       id="text3973-7-7-1"
       sodipodi:linespacing="125%"><tspan
         sodipodi:role="line"
         id="tspan3975-04-1-4"
         x="330.76953"
         y="603.94434"
         style="font-size:14px;font-style:normal;font-variant:normal;font-weight:normal;font-stretch:normal;text-align:start;line-height:125%;writing-mode:lr-tb;text-anchor:start;fill:#008000;font-family:Arial;-inkscape-font-specification:Arial">k</tspan></text>
    <text
       xml:space="preserve"
       style="font-size:20px;font-style:normal;font-variant:normal;font-weight:normal;font-stretch:normal;text-align:start;line-height:125%;letter-spacing:0px;word-spacing:0px;writing-mode:lr-tb;text-anchor:start;fill:#008000;fill-opacity:1;stroke:none;font-family:Arial;-inkscape-font-specification:Arial"
       x="188.89697"
       y="607.94434"
       id="text3973-9-7-9-1"
       sodipodi:linespacing="125%"><tspan
         sodipodi:role="line"
         id="tspan3975-5-0-0-2"
         x="188.89697"
         y="607.94434"
         style="font-size:14px;font-style:normal;font-variant:normal;font-weight:normal;font-stretch:normal;text-align:start;line-height:125%;writing-mode:lr-tb;text-anchor:start;fill:#008000;font-family:Arial;-inkscape-font-specification:Arial">0</tspan></text>
    <text
       xml:space="preserve"
       style="font-size:20px;font-style:normal;font-variant:normal;font-weight:normal;font-stretch:normal;text-align:start;line-height:125%;letter-spacing:0px;word-spacing:0px;writing-mode:lr-tb;text-anchor:start;fill:#800080;fill-opacity:1;stroke:none;font-family:Arial;-inkscape-font-specification:Arial"
       x="443.897"
       y="547.94434"
       id="text3973-9-7-9-1-6"
       sodipodi:linespacing="125%"><tspan
         sodipodi:role="line"
         id="tspan3975-5-0-0-2-7"
         x="443.897"
         y="547.94434"
         style="font-size:14px;font-style:normal;font-variant:normal;font-weight:normal;font-stretch:normal;text-align:start;line-height:125%;writing-mode:lr-tb;text-anchor:start;fill:#800080;font-family:Arial;-inkscape-font-specification:Arial">-2</tspan></text>
    <text
       xml:space="preserve"
       style="font-size:12px;font-style:normal;font-variant:normal;font-weight:normal;font-stretch:normal;text-align:start;line-height:125%;letter-spacing:0px;word-spacing:0px;writing-mode:lr-tb;text-anchor:start;fill:#800080;fill-opacity:1;stroke:none;font-family:Arial;-inkscape-font-specification:Arial"
       x="629.76953"
       y="541.25684"
       id="text3977-5-6-6-4-7"
       sodipodi:linespacing="125%"><tspan
         sodipodi:role="line"
         id="tspan3979-5-7-5-4-0"
         x="629.76953"
         y="541.25684">n</tspan></text>
    <text
       xml:space="preserve"
       style="font-size:20px;font-style:normal;font-variant:normal;font-weight:normal;font-stretch:normal;text-align:start;line-height:125%;letter-spacing:0px;word-spacing:0px;writing-mode:lr-tb;text-anchor:start;fill:#ff0000;fill-opacity:1;stroke:none;font-family:Arial;-inkscape-font-specification:Arial"
       x="287.68555"
       y="450.56937"
       id="text3973-9-13-0-6-1-9-2-8-7"
       sodipodi:linespacing="125%"><tspan
         sodipodi:role="line"
         id="tspan3975-5-2-4-2-1-3-8-7-4"
         x="287.68555"
         y="450.56937"
         style="font-size:14px;font-style:normal;font-variant:normal;font-weight:normal;font-stretch:normal;text-align:start;line-height:125%;writing-mode:lr-tb;text-anchor:start;fill:#ff0000;font-family:Arial;-inkscape-font-specification:Arial">h[-2-k]</tspan></text>
  </g>
</svg>
